# xmcd
#
# Track frame offsets: 
#        180
#        22464
#        40231
#        58039
#        79152
#        91440
#        110773
#        127282
#        146970
#        165342
#
# Disc length: 2455 seconds
#
# Revision: 0
# Processed by: cddbd v1.5.1PL0 Copyright (c) Steve Scherf et al.
# Submitted via: ExactAudioCopy v0.95a5
#
DISCID=9609950a
DTITLE=Mark Shark - From The Heart
DYEAR=1995
DGENRE=Power Ballad
TTITLE0=From the Heart
TTITLE1=Cries of the Flesh
TTITLE2=Material Junkies
TTITLE3=Heart Trouble
TTITLE4=Street Side of the Mountain
TTITLE5=The Beast
TTITLE6=The Blame
TTITLE7=The Stone
TTITLE8=Can't Get Away From You Blues
TTITLE9=Moon Said So
EXTD=Peace Company Records\n\nLyrics by John Trudell - Poet-Tree Publi
EXTD=shing. ASCAP\nMusic by Mark Shark - Treasure Room publishing, ASC
EXTD=AP\n\nMark Shark - guitar - vocals\nRick Eckstein - bass\nGary Fe
EXTD=rgusson - drums - percussion\nDoug Legacy - keyboards\nDave Pearl
EXTD=man - pedal steel guitar\nToby Farmer/Donald Lewis/Sam Thompson -
EXTD=horns
EXTT0=
EXTT1=
EXTT2=
EXTT3=
EXTT4=
EXTT5=
EXTT6=
EXTT7=
EXTT8=
EXTT9=
PLAYORDER=
